<svg version="1.1"
     id="Capa_1"
     xmlns="http://www.w3.org/2000/svg"
     xmlns:xlink="http://www.w3.org/1999/xlink"
     x="0px"
     y="0px"
     viewBox="0 0 512 512"
     style="enable-background:new 0 0 512 512;"
     xml:space="preserve">
    <g>
        <g>
            <path d="M406,241c7.914,0,15.691,2.079,22.489,6.011c9.993,5.78,22.511-1.457,22.511-12.984V106c0-8.284-6.716-15-15-15H329.376 C330.445,85.764,331,80.379,331,75c0-41.355-33.645-75-75-75c-41.355,0-75,33.645-75,75c0,5.379,0.555,10.764,1.624,16H76 c-8.284,0-15,6.716-15,15v128.027c0,11.545,12.532,18.753,22.511,12.984C90.309,243.079,98.086,241,106,241 c24.813,0,45,20.187,45,45s-20.187,45-45,45c-7.914,0-15.691-2.079-22.489-6.011C73.518,319.21,61,326.443,61,337.973V497 c0,8.284,6.716,15,15,15h128.027c11.543,0,18.758-12.532,12.983-22.511C213.078,482.691,211,474.915,211,467 c0-24.813,20.187-45,45-45s45,20.187,45,45c0,7.915-2.078,15.691-6.011,22.489c-5.782,9.992,1.457,22.511,12.983,22.511H436 c8.284,0,15-6.716,15-15V337.973c0-11.543-12.53-18.756-22.511-12.984C421.691,328.921,413.914,331,406,331 c-24.813,0-45-20.187-45-45S381.187,241,406,241z M406,361c5.058,0,10.084-0.511,15-1.512V482h-91.513 c1.002-4.917,1.513-9.942,1.513-15c0-41.355-33.645-75-75-75c-41.355,0-75,33.645-75,75c0,5.058,0.511,10.083,1.513,15H91V359.488 c4.916,1.001,9.942,1.512,15,1.512c41.355,0,75-33.645,75-75c0-41.355-33.645-75-75-75c-5.058,0-10.084,0.511-15,1.512V121 h113.027c11.543,0,18.758-12.532,12.983-22.511C213.191,91.885,211,83.324,211,75c0-24.813,20.187-45,45-45s45,20.187,45,45 c0,8.324-2.191,16.885-6.011,23.489c-5.782,9.992,1.457,22.511,12.983,22.511H421v91.512c-4.916-1.001-9.942-1.512-15-1.512 c-41.355,0-75,33.645-75,75S364.645,361,406,361z" />
        </g>
    </g>
</svg>