<?xml version="1.0" encoding="iso-8859-1"?>
<!-- Generator: Adobe Illustrator 19.1.0, SVG Export Plug-In . SVG Version: 6.00 Build 0)  -->
<svg version="1.1" id="Capa_1" xmlns="http://www.w3.org/2000/svg" xmlns:xlink="http://www.w3.org/1999/xlink" x="0px" y="0px"
	 viewBox="0 0 74.398 74.398" style="enable-background:new 0 0 74.398 74.398;" xml:space="preserve">
<g>
	<g>
		<path d="M61.735,29.433l9.177,7.484c0.375,0.314,0.956,0.468,1.409,0.468c0.57,0,1.201-0.243,1.596-0.715
			c0.71-0.847,0.631-2.108-0.216-2.817L38.58,4.393c-0.372-0.312-0.815-0.456-1.266-0.459c-0.032-0.003-0.062,0.001-0.094-0.001
			c-0.032,0.002-0.063-0.002-0.095,0.001c-0.451,0.003-0.901,0.147-1.273,0.459L0.715,33.853c-0.846,0.709-0.957,1.971-0.248,2.817
			c0.396,0.472,0.963,0.715,1.534,0.715c0.454,0,0.659-0.153,1.034-0.468l6.699-5.826v31.408c0,4.369,4.551,7.967,8.999,7.967h36
			c4.206,0,7.001-3.286,7.001-7.967L61.735,29.433L61.735,29.433z M43.735,66.466h-15V44.658c0-1.067,2.376-2.192,4.061-2.192h9.579
			c1.478,0,1.36,0.753,1.36,2.192V66.466z M57.735,62.499c0,2.137-0.81,3.967-3.001,3.967h-6.999V44.658
			c0-3.639-1.691-6.192-5.36-6.192h-9.579c-3.665,0-8.061,2.418-8.061,6.192v21.808h-6.001c-2.229,0-4.999-1.813-4.999-3.967V27.847
			c0-0.034,0.242-0.067,0.24-0.102L37.1,8.463l21.342,18.051c-0.319,0.354-0.706,0.818-0.706,1.333L57.735,62.499L57.735,62.499z"/>
	</g>
</g>
<g>
</g>
<g>
</g>
<g>
</g>
<g>
</g>
<g>
</g>
<g>
</g>
<g>
</g>
<g>
</g>
<g>
</g>
<g>
</g>
<g>
</g>
<g>
</g>
<g>
</g>
<g>
</g>
<g>
</g>
</svg>
