<!-- icon666.com - MILLIONS vector ICONS FREE --><svg version="1.1" xmlns="http://www.w3.org/2000/svg" viewBox="0 0 230.754 230.754" xmlns:xlink="http://www.w3.org/1999/xlink" enable-background="new 0 0 230.754 230.754"><g><path d="m215.94,55.127h-63.065v-17.746c0-3.313-2.687-6-6-6h-62.996c-3.313,0-6,2.687-6,6v17.747h-63.066c-8.167-0.001-14.813,6.644-14.813,14.812v108.324c0,11.639 9.469,21.108 21.108,21.108h188.537c11.64,0 21.108-9.469 21.108-21.108v-108.324c0.001-8.168-6.645-14.813-14.813-14.813zm-6.294,132.246h-188.538c-5.022,0-9.108-4.086-9.108-9.108v-104.412l79.758,62.611c6.954,5.459 15.285,8.188 23.619,8.188 8.332,0 16.667-2.73 23.619-8.188l79.758-62.611v104.412c2.84217e-14,5.022-4.086,9.108-9.108,9.108zm-1.76-120.246l-76.301,59.897c-9.543,7.491-22.875,7.492-32.418,0l-76.3-59.897h185.019zm-118.007-23.746h50.996v11.747h-50.996v-11.747z"></path><path d="m110.627,114.026h9.5c3.313,0 6-2.687 6-6s-2.687-6-6-6h-9.5c-3.313,0-6,2.687-6,6s2.686,6 6,6z"></path></g></svg>